<?xml version="1.0" standalone="no"?><!DOCTYPE svg PUBLIC "-//W3C//DTD SVG 1.1//EN" "http://www.w3.org/Graphics/SVG/1.1/DTD/svg11.dtd"><svg t="1732784384712" class="icon" viewBox="0 0 1024 1024" version="1.1" xmlns="http://www.w3.org/2000/svg" p-id="4391" xmlns:xlink="http://www.w3.org/1999/xlink" width="128" height="128"><path d="M490.666667 67.626667L270.08 290.56 578.56 469.333333l229.12-223.573333zM270.08 324.906667l276.053333 159.786666 44.373334 456.106667h-111.573334zM807.68 267.946667L590.506667 490.666667l31.573333 450.133333 151.04-124.586667zM48.64 478.72L0 658.346667l211.84 2.986666 53.546667-182.186666zM10.026667 676.053333l189.653333 2.133334 219.093333 272.853333-52.053333 5.333333zM271.786667 490.666667l-47.786667 177.066666 211.2 274.133334 7.466667-53.973334zM945.066667 485.12l-121.386667 36.906667 75.52 123.093333L1024 610.133333zM817.066667 534.4l67.413333 110.293333-78.293333 225.493334-21.333334-28.16zM1019.733333 618.666667l-120.32 37.12-82.133333 220.586666 33.92-15.146666z" p-id="4392"></path></svg>