<?xml version="1.0" standalone="no"?><!DOCTYPE svg PUBLIC "-//W3C//DTD SVG 1.1//EN" "http://www.w3.org/Graphics/SVG/1.1/DTD/svg11.dtd"><svg t="1732784416711" class="icon" viewBox="0 0 1024 1024" version="1.1" xmlns="http://www.w3.org/2000/svg" p-id="7511" xmlns:xlink="http://www.w3.org/1999/xlink" width="128" height="128"><path d="M510.1 510.1l3.8 3.8-3.8-3.8zM514.3 509.6l-4.7 4.7c1.9-1.5 3.4-3 4.7-4.7z" fill="#d81e06" p-id="7512"></path><path d="M712.2 230.6c21.3 47.2 24.5 125.2-19.6 162.7C621 118.1 442 64.4 442 64.4c21.3 139.9-74.8 293-169.2 408.4-3.2-55.3-6.6-92.7-37.4-149.7C228.8 425.6 150.8 507 128 609.5c-27.6 141.6 22.8 240.9 214.7 350-60.2-125.2-27.6-196.9 19.6-261.9 50.4-74.8 63.6-146.5 63.6-146.5s40.6 50.4 24.5 130.1c68.2-78 81.4-203.5 71.7-249 156.1 109.1 226 350 135 524.1 481.4-275 118.5-683.5 55.1-725.7z" fill="#d81e06" p-id="7513"></path></svg>