<?xml version="1.0" standalone="no"?><!DOCTYPE svg PUBLIC "-//W3C//DTD SVG 1.1//EN" "http://www.w3.org/Graphics/SVG/1.1/DTD/svg11.dtd"><svg t="1732784378783" class="icon" viewBox="0 0 1241 1024" version="1.1" xmlns="http://www.w3.org/2000/svg" p-id="4233" xmlns:xlink="http://www.w3.org/1999/xlink" width="155.125" height="128"><path d="M706.110061 1019.097212l-17.935516-385.380848 417.326546-391.555879L1241.212121 516.235636 706.110061 1019.097212z m-93.385697-419.39006l-11.217455-112.965819-18.323394-164.072727L875.892364 54.861576l134.454303 153.289697 70.919757 14.273939-413.090909 387.584-55.451151-10.30206zM285.913212 266.953697l0.574061-0.496485L590.599758 0l257.411878 38.353455-286.937212 262.531878-275.161212-33.931636z m299.861333 325.523394l-1.318787-0.232727 0.077575 0.57406-28.051394-5.756121-227.141818-41.999515-211.657697-38.663758 105.735758-66.420363 51.153454-143.142788 277.317819 33.745454 33.88509 261.895758z m-267.589818 363.364848L0 890.243879l85.783273-360.432485 215.303757 43.876848 17.097697 382.153697z m19.083637-123.919515l-11.71394-256.434424 65.50497 12.613818-53.79103 243.820606z m253.765818-207.840969l-0.465455 0.434424-1.613575-0.294788 2.07903-0.139636z m66.653091 16.41503L675.452121 1024l-338.183757-65.722182 87.241697-366.545454 233.177212 48.764121z" fill="#bfbfbf" p-id="4234"></path></svg>