<?xml version="1.0" standalone="no"?><!DOCTYPE svg PUBLIC "-//W3C//DTD SVG 1.1//EN" "http://www.w3.org/Graphics/SVG/1.1/DTD/svg11.dtd"><svg t="1732784437675" class="icon" viewBox="0 0 1024 1024" version="1.1" xmlns="http://www.w3.org/2000/svg" p-id="8610" xmlns:xlink="http://www.w3.org/1999/xlink" width="128" height="128"><path d="M392.4 69.2L138.6 175.1c-23.5 9.8-39.5 31.9-41.7 57.2-6.9 79.2-12.6 259.8 51 445.5 49.8 145.5 157.6 229.4 238.3 273.9 45.2 25 100.6-8.3 100.6-60V132.1c0-48.6-49.5-81.6-94.4-62.9z" fill="#EEEEEE" p-id="8611"></path><path d="M933.1 232.3c-2.2-25.4-18.2-47.4-41.7-57.2L637.7 69.2c-44.9-18.7-94.4 14.3-94.4 62.9v759.6c0 51.6 55.4 85 100.6 60 80.7-44.6 188.5-128.5 238.3-273.9 63.5-185.7 57.8-366.3 50.9-445.5z" fill="#FFF7D4" p-id="8612"></path></svg>